<svg width="56" height="56" viewBox="0 0 56 56" fill="none" xmlns="http://www.w3.org/2000/svg">
<rect width="56" height="56" rx="28" fill="#F7F7F7"/>
<path d="M24.3316 28.4687C23.7067 27.8438 22.6937 27.8438 22.0688 28.4687C21.444 29.0935 21.444 30.1066 22.0688 30.7314L26.8688 35.5314C27.4937 36.1563 28.5067 36.1563 29.1316 35.5314L33.9316 30.7314C34.5564 30.1066 34.5564 29.0935 33.9316 28.4687C33.3067 27.8438 32.2937 27.8438 31.6688 28.4687L29.6002 30.5373L29.6002 21.6H37.6002C39.3675 21.6 40.8002 23.0327 40.8002 24.8V36C40.8002 37.7674 39.3675 39.2001 37.6002 39.2001H18.4002C16.6329 39.2001 15.2002 37.7674 15.2002 36V24.8C15.2002 23.0327 16.6329 21.6 18.4002 21.6H26.4002L26.4002 30.5373L24.3316 28.4687Z" fill="#57AF81"/>
<path d="M26.4002 18.4C26.4002 17.5164 27.1165 16.8 28.0002 16.8C28.8839 16.8 29.6002 17.5164 29.6002 18.4L29.6002 21.6H26.4002L26.4002 18.4Z" fill="#57AF81"/>
</svg>
