<svg width="32" height="33" viewBox="0 0 32 33" fill="none" xmlns="http://www.w3.org/2000/svg">
<path d="M22.1334 8.26C21.222 7.2195 20.7197 5.88324 20.7201 4.5H16.6001V21.0333C16.5683 21.928 16.1906 22.7755 15.5464 23.3973C14.9023 24.019 14.042 24.3665 13.1468 24.3667C11.2534 24.3667 9.68009 22.82 9.68009 20.9C9.68009 18.6067 11.8934 16.8867 14.1734 17.5933V13.38C9.57342 12.7667 5.54675 16.34 5.54675 20.9C5.54675 25.34 9.22675 28.5 13.1334 28.5C17.3201 28.5 20.7201 25.1 20.7201 20.9V12.5133C22.3908 13.7131 24.3966 14.3569 26.4534 14.3533V10.2333C26.4534 10.2333 23.9468 10.3533 22.1334 8.26Z" fill="#727272"/>
</svg>
