<svg width="32" height="33" viewBox="0 0 32 33" fill="none" xmlns="http://www.w3.org/2000/svg">
<path d="M29.9467 8.49992C28.92 8.96659 27.8133 9.27325 26.6667 9.41992C27.84 8.71325 28.7467 7.59325 29.1733 6.24659C28.0667 6.91325 26.84 7.37992 25.5467 7.64659C24.4933 6.49992 23.0133 5.83325 21.3333 5.83325C18.2 5.83325 15.64 8.39325 15.64 11.5533C15.64 12.0066 15.6933 12.4466 15.7867 12.8599C11.04 12.6199 6.81334 10.3399 4.00001 6.88659C3.50668 7.72659 3.22668 8.71325 3.22668 9.75325C3.22668 11.7399 4.22668 13.4999 5.77334 14.4999C4.82668 14.4999 3.94668 14.2333 3.17334 13.8333V13.8733C3.17334 16.6466 5.14668 18.9666 7.76001 19.4866C6.92098 19.7162 6.04014 19.7481 5.18668 19.5799C5.54882 20.7166 6.25806 21.7111 7.2147 22.4238C8.17134 23.1365 9.32727 23.5315 10.52 23.5533C8.49818 25.1538 5.99201 26.019 3.41334 26.0066C2.96001 26.0066 2.50668 25.9799 2.05334 25.9266C4.58668 27.5533 7.60001 28.4999 10.8267 28.4999C21.3333 28.4999 27.1067 19.7799 27.1067 12.2199C27.1067 11.9666 27.1067 11.7266 27.0933 11.4733C28.2133 10.6733 29.1733 9.65992 29.9467 8.49992Z" fill="#727272"/>
</svg>
