<svg width="42" height="38" viewBox="0 0 42 38" fill="none" xmlns="http://www.w3.org/2000/svg">
<path fill-rule="evenodd" clip-rule="evenodd" d="M16.2938 2.86685C18.3583 -0.803271 23.6424 -0.803273 25.7068 2.86685L40.7736 29.6523C42.7985 33.252 40.1972 37.6997 36.0671 37.6997H5.9335C1.80343 37.6997 -0.797822 33.252 1.22699 29.6523L16.2938 2.86685ZM23.7001 29.6C23.7001 31.0912 22.4913 32.3 21.0001 32.3C19.5089 32.3 18.3001 31.0912 18.3001 29.6C18.3001 28.1089 19.5089 26.9 21.0001 26.9C22.4913 26.9 23.7001 28.1089 23.7001 29.6ZM21.0001 8.00002C19.5089 8.00002 18.3001 9.20886 18.3001 10.7V18.8C18.3001 20.2912 19.5089 21.5 21.0001 21.5C22.4913 21.5 23.7001 20.2912 23.7001 18.8V10.7C23.7001 9.20886 22.4913 8.00002 21.0001 8.00002Z" fill="url(#paint0_linear_2655_750)"/>
<defs>
<linearGradient id="paint0_linear_2655_750" x1="0.971545" y1="-24.3518" x2="47.0957" y2="-23.3224" gradientUnits="userSpaceOnUse">
<stop stop-color="#65B675"/>
<stop offset="1" stop-color="#138FC2"/>
</linearGradient>
</defs>
</svg>
