<svg width="32" height="33" viewBox="0 0 32 33" fill="none" xmlns="http://www.w3.org/2000/svg">
<path d="M10.4 3.16675H21.6C25.8666 3.16675 29.3333 6.63341 29.3333 10.9001V22.1001C29.3333 24.1511 28.5185 26.1181 27.0683 27.5684C25.618 29.0187 23.651 29.8334 21.6 29.8334H10.4C6.13329 29.8334 2.66663 26.3668 2.66663 22.1001V10.9001C2.66663 8.84907 3.48139 6.88207 4.93167 5.43179C6.38195 3.98151 8.34895 3.16675 10.4 3.16675ZM10.1333 5.83341C8.86025 5.83341 7.63936 6.33913 6.73918 7.2393C5.83901 8.13948 5.33329 9.36038 5.33329 10.6334V22.3667C5.33329 25.0201 7.47996 27.1667 10.1333 27.1667H21.8666C23.1397 27.1667 24.3606 26.661 25.2607 25.7609C26.1609 24.8607 26.6666 23.6398 26.6666 22.3667V10.6334C26.6666 7.98008 24.52 5.83341 21.8666 5.83341H10.1333ZM23 7.83342C23.442 7.83342 23.8659 8.00901 24.1785 8.32157C24.491 8.63413 24.6666 9.05805 24.6666 9.50008C24.6666 9.94211 24.491 10.366 24.1785 10.6786C23.8659 10.9912 23.442 11.1667 23 11.1667C22.5579 11.1667 22.134 10.9912 21.8214 10.6786C21.5089 10.366 21.3333 9.94211 21.3333 9.50008C21.3333 9.05805 21.5089 8.63413 21.8214 8.32157C22.134 8.00901 22.5579 7.83342 23 7.83342ZM16 9.83342C17.7681 9.83342 19.4638 10.5358 20.714 11.786C21.9642 13.0363 22.6666 14.732 22.6666 16.5001C22.6666 18.2682 21.9642 19.9639 20.714 21.2141C19.4638 22.4644 17.7681 23.1667 16 23.1667C14.2318 23.1667 12.5362 22.4644 11.2859 21.2141C10.0357 19.9639 9.33329 18.2682 9.33329 16.5001C9.33329 14.732 10.0357 13.0363 11.2859 11.786C12.5362 10.5358 14.2318 9.83342 16 9.83342ZM16 12.5001C14.9391 12.5001 13.9217 12.9215 13.1715 13.6717C12.4214 14.4218 12 15.4392 12 16.5001C12 17.5609 12.4214 18.5784 13.1715 19.3285C13.9217 20.0787 14.9391 20.5001 16 20.5001C17.0608 20.5001 18.0782 20.0787 18.8284 19.3285C19.5785 18.5784 20 17.5609 20 16.5001C20 15.4392 19.5785 14.4218 18.8284 13.6717C18.0782 12.9215 17.0608 12.5001 16 12.5001Z" fill="#727272"/>
</svg>
