<svg width="32" height="33" viewBox="0 0 32 33" fill="none" xmlns="http://www.w3.org/2000/svg">
<path d="M13.3334 20.5001L20.2534 16.5001L13.3334 12.5001V20.5001ZM28.7467 10.0601C28.9201 10.6867 29.0401 11.5267 29.1201 12.5934C29.2134 13.6601 29.2534 14.5801 29.2534 15.3801L29.3334 16.5001C29.3334 19.4201 29.1201 21.5667 28.7467 22.9401C28.4134 24.1401 27.6401 24.9134 26.4401 25.2467C25.8134 25.4201 24.6667 25.5401 22.9067 25.6201C21.1734 25.7134 19.5867 25.7534 18.1201 25.7534L16.0001 25.8334C10.4134 25.8334 6.93341 25.6201 5.56008 25.2467C4.36008 24.9134 3.58675 24.1401 3.25341 22.9401C3.08008 22.3134 2.96008 21.4734 2.88008 20.4067C2.78675 19.3401 2.74675 18.4201 2.74675 17.6201L2.66675 16.5001C2.66675 13.5801 2.88008 11.4334 3.25341 10.0601C3.58675 8.86008 4.36008 8.08675 5.56008 7.75341C6.18675 7.58008 7.33342 7.46008 9.09342 7.38008C10.8267 7.28675 12.4134 7.24675 13.8801 7.24675L16.0001 7.16675C21.5867 7.16675 25.0667 7.38008 26.4401 7.75341C27.6401 8.08675 28.4134 8.86008 28.7467 10.0601Z" fill="#727272"/>
</svg>
