<svg width="61" height="60" viewBox="0 0 61 60" fill="none" xmlns="http://www.w3.org/2000/svg">
<rect x="0.333252" width="60" height="60" rx="30" fill="#DBF7FF"/>
<path d="M36.3333 22C36.3333 25.3137 33.647 28 30.3333 28C27.0195 28 24.3333 25.3137 24.3333 22C24.3333 18.6863 27.0195 16 30.3333 16C33.647 16 36.3333 18.6863 36.3333 22Z" fill="#16BCEC"/>
<path d="M46.3333 26C46.3333 28.2091 44.5424 30 42.3333 30C40.1241 30 38.3333 28.2091 38.3333 26C38.3333 23.7909 40.1241 22 42.3333 22C44.5424 22 46.3333 23.7909 46.3333 26Z" fill="#16BCEC"/>
<path d="M38.3333 40C38.3333 35.5817 34.7515 32 30.3333 32C25.915 32 22.3333 35.5817 22.3333 40V46H38.3333V40Z" fill="#16BCEC"/>
<path d="M22.3333 26C22.3333 28.2091 20.5424 30 18.3333 30C16.1241 30 14.3333 28.2091 14.3333 26C14.3333 23.7909 16.1241 22 18.3333 22C20.5424 22 22.3333 23.7909 22.3333 26Z" fill="#16BCEC"/>
<path d="M42.3333 46V40C42.3333 37.8917 41.7896 35.9104 40.8347 34.1886C41.3137 34.0655 41.8158 34 42.3333 34C45.647 34 48.3333 36.6863 48.3333 40V46H42.3333Z" fill="#16BCEC"/>
<path d="M19.8318 34.1886C18.8769 35.9104 18.3333 37.8917 18.3333 40V46H12.3333V40C12.3333 36.6863 15.0195 34 18.3333 34C18.8507 34 19.3528 34.0655 19.8318 34.1886Z" fill="#16BCEC"/>
</svg>
