<svg width="61" height="60" viewBox="0 0 61 60" fill="none" xmlns="http://www.w3.org/2000/svg">
<rect x="0.666504" width="60" height="60" rx="30" fill="#FFF2EA"/>
<path fill-rule="evenodd" clip-rule="evenodd" d="M20.6665 18C17.3528 18 14.6665 20.6863 14.6665 24V36C14.6665 39.3137 17.3528 42 20.6665 42H40.6665C43.9802 42 46.6665 39.3137 46.6665 36V24C46.6665 20.6863 43.9802 18 40.6665 18H20.6665ZM18.6665 36V34H28.6665V38H20.6665C19.5619 38 18.6665 37.1046 18.6665 36ZM32.6665 38H40.6665C41.7711 38 42.6665 37.1046 42.6665 36V34H32.6665V38ZM32.6665 30H42.6665V26H32.6665V30ZM28.6665 26H18.6665V30H28.6665V26Z" fill="#FF9456"/>
</svg>
