<svg width="16" height="17" viewBox="0 0 16 17" fill="none" xmlns="http://www.w3.org/2000/svg">
<path d="M9.99967 1.16699H2.66634C1.93301 1.16699 1.33301 1.76699 1.33301 2.50033V11.167C1.33301 11.5337 1.63301 11.8337 1.99967 11.8337C2.36634 11.8337 2.66634 11.5337 2.66634 11.167V3.16699C2.66634 2.80033 2.96634 2.50033 3.33301 2.50033H9.99967C10.3663 2.50033 10.6663 2.20033 10.6663 1.83366C10.6663 1.46699 10.3663 1.16699 9.99967 1.16699ZM10.393 4.22699L13.613 7.44699C13.8597 7.69366 13.9997 8.03366 13.9997 8.38699V14.5003C13.9997 15.2337 13.3997 15.8337 12.6663 15.8337H5.32634C4.59301 15.8337 3.99967 15.2337 3.99967 14.5003L4.00634 5.16699C4.00634 4.43366 4.59967 3.83366 5.33301 3.83366H9.44634C9.79967 3.83366 10.1397 3.97366 10.393 4.22699ZM9.99967 8.50033H12.9997L9.33301 4.83366V7.83366C9.33301 8.20033 9.63301 8.50033 9.99967 8.50033Z" fill="#C1C5C8"/>
</svg>
