<svg width="16" height="17" viewBox="0 0 16 17" fill="none" xmlns="http://www.w3.org/2000/svg">
<path fill-rule="evenodd" clip-rule="evenodd" d="M14.4001 8.5001C14.4001 12.0347 11.5347 14.9001 8.0001 14.9001C4.46548 14.9001 1.6001 12.0347 1.6001 8.5001C1.6001 4.96548 4.46548 2.1001 8.0001 2.1001C11.5347 2.1001 14.4001 4.96548 14.4001 8.5001ZM8.8001 5.3001C8.8001 5.74193 8.44193 6.1001 8.0001 6.1001C7.55827 6.1001 7.2001 5.74193 7.2001 5.3001C7.2001 4.85827 7.55827 4.5001 8.0001 4.5001C8.44193 4.5001 8.8001 4.85827 8.8001 5.3001ZM7.2001 7.7001C6.75827 7.7001 6.4001 8.05827 6.4001 8.5001C6.4001 8.94193 6.75827 9.3001 7.2001 9.3001V11.7001C7.2001 12.1419 7.55827 12.5001 8.0001 12.5001H8.8001C9.24193 12.5001 9.6001 12.1419 9.6001 11.7001C9.6001 11.2583 9.24193 10.9001 8.8001 10.9001V8.5001C8.8001 8.05827 8.44193 7.7001 8.0001 7.7001H7.2001Z" fill="#727272"/>
</svg>
