<svg width="41" height="40" viewBox="0 0 41 40" fill="none" xmlns="http://www.w3.org/2000/svg">
<path d="M22.6666 6C22.6666 4.89543 21.7712 4 20.6666 4C19.5621 4 18.6666 4.89543 18.6666 6V8C18.6666 9.10457 19.5621 10 20.6666 10C21.7712 10 22.6666 9.10457 22.6666 8V6Z" fill="#57AF81"/>
<path d="M31.9803 11.5146C32.7613 10.7336 32.7613 9.46723 31.9803 8.68619C31.1992 7.90514 29.9329 7.90514 29.1518 8.68619L27.7376 10.1004C26.9566 10.8814 26.9566 12.1478 27.7376 12.9288C28.5187 13.7099 29.785 13.7099 30.566 12.9288L31.9803 11.5146Z" fill="#57AF81"/>
<path d="M36.6666 20C36.6666 21.1046 35.7712 22 34.6666 22H32.6666C31.5621 22 30.6666 21.1046 30.6666 20C30.6666 18.8954 31.5621 18 32.6666 18H34.6666C35.7712 18 36.6666 18.8954 36.6666 20Z" fill="#57AF81"/>
<path d="M10.767 12.9289C11.5481 13.7099 12.8144 13.7099 13.5954 12.9289C14.3765 12.1478 14.3765 10.8815 13.5954 10.1004L12.1812 8.68622C11.4002 7.90517 10.1338 7.90517 9.35279 8.68622C8.57174 9.46727 8.57174 10.7336 9.35279 11.5146L10.767 12.9289Z" fill="#57AF81"/>
<path d="M10.6666 20C10.6666 21.1046 9.7712 22 8.66663 22H6.66663C5.56206 22 4.66663 21.1046 4.66663 20C4.66663 18.8954 5.56206 18 6.66663 18H8.66663C9.7712 18 10.6666 18.8954 10.6666 20Z" fill="#57AF81"/>
<path d="M16.6666 32V30H24.6666V32C24.6666 34.2091 22.8758 36 20.6666 36C18.4575 36 16.6666 34.2091 16.6666 32Z" fill="#57AF81"/>
<path d="M24.6684 28C24.6976 27.3193 25.0818 26.7074 25.6203 26.2823C27.4757 24.8172 28.6666 22.5477 28.6666 20C28.6666 15.5817 25.0849 12 20.6666 12C16.2483 12 12.6666 15.5817 12.6666 20C12.6666 22.5477 13.8575 24.8172 15.713 26.2823C16.2514 26.7074 16.6356 27.3193 16.6648 28H24.6684Z" fill="#57AF81"/>
</svg>
