<svg width="16" height="17" viewBox="0 0 16 17" fill="none" xmlns="http://www.w3.org/2000/svg">
<path d="M8.8001 2.9001C8.8001 2.45827 8.44193 2.1001 8.0001 2.1001C7.55827 2.1001 7.2001 2.45827 7.2001 2.9001V3.7001C7.2001 4.14193 7.55827 4.5001 8.0001 4.5001C8.44193 4.5001 8.8001 4.14193 8.8001 3.7001V2.9001Z" fill="#727272"/>
<path d="M12.5255 5.10594C12.838 4.79352 12.838 4.28699 12.5255 3.97457C12.2131 3.66215 11.7066 3.66215 11.3942 3.97457L10.8285 4.54026C10.5161 4.85268 10.5161 5.35921 10.8285 5.67163C11.1409 5.98405 11.6474 5.98405 11.9599 5.67163L12.5255 5.10594Z" fill="#727272"/>
<path d="M14.4001 8.5001C14.4001 8.94193 14.0419 9.3001 13.6001 9.3001H12.8001C12.3583 9.3001 12.0001 8.94193 12.0001 8.5001C12.0001 8.05827 12.3583 7.7001 12.8001 7.7001H13.6001C14.0419 7.7001 14.4001 8.05827 14.4001 8.5001Z" fill="#727272"/>
<path d="M4.04025 5.67164C4.35267 5.98406 4.8592 5.98406 5.17162 5.67164C5.48404 5.35922 5.48404 4.85269 5.17162 4.54027L4.60593 3.97459C4.29351 3.66217 3.78698 3.66217 3.47456 3.97459C3.16214 4.28701 3.16214 4.79354 3.47456 5.10596L4.04025 5.67164Z" fill="#727272"/>
<path d="M4.0001 8.5001C4.0001 8.94193 3.64193 9.3001 3.2001 9.3001H2.4001C1.95827 9.3001 1.6001 8.94193 1.6001 8.5001C1.6001 8.05827 1.95827 7.7001 2.4001 7.7001H3.2001C3.64193 7.7001 4.0001 8.05827 4.0001 8.5001Z" fill="#727272"/>
<path d="M6.4001 13.3001V12.5001H9.6001V13.3001C9.6001 14.1838 8.88375 14.9001 8.0001 14.9001C7.11644 14.9001 6.4001 14.1838 6.4001 13.3001Z" fill="#727272"/>
<path d="M9.60081 11.7001C9.61249 11.4278 9.76617 11.1831 9.98155 11.013C10.7237 10.427 11.2001 9.51917 11.2001 8.5001C11.2001 6.73279 9.76741 5.3001 8.0001 5.3001C6.23279 5.3001 4.8001 6.73279 4.8001 8.5001C4.8001 9.51917 5.27646 10.427 6.01865 11.013C6.23402 11.1831 6.38771 11.4278 6.39938 11.7001H9.60081Z" fill="#727272"/>
</svg>
