<svg width="55" height="54" viewBox="0 0 55 54" fill="none" xmlns="http://www.w3.org/2000/svg">
<path fill-rule="evenodd" clip-rule="evenodd" d="M27.5 4.5C39.9268 4.5 50 14.5733 50 27C50 39.4268 39.9268 49.5 27.5 49.5C15.0733 49.5 5 39.4268 5 27C5 14.5733 15.0733 4.5 27.5 4.5ZM27.5 29.25C24.7594 29.247 22.1126 30.2475 20.0592 32.0625C19.6117 32.4572 19.3393 33.0136 19.3019 33.6092C19.2646 34.2048 19.4654 34.7908 19.8601 35.2384C20.2549 35.6859 20.8112 35.9583 21.4068 35.9957C22.0024 36.033 22.5884 35.8322 23.036 35.4375C24.2672 34.3475 25.8556 33.747 27.5 33.75C29.1446 33.746 30.7333 34.3466 31.964 35.4375C32.4116 35.8325 32.9977 36.0336 33.5935 35.9965C34.1893 35.9593 34.746 35.6871 35.141 35.2395C35.536 34.7919 35.7371 34.2058 35.7 33.61C35.6628 33.0142 35.3906 32.4575 34.943 32.0625C32.8891 30.2469 30.2413 29.2464 27.5 29.25ZM19.625 18C18.7299 18 17.8714 18.3556 17.2385 18.9885C16.6056 19.6214 16.25 20.4799 16.25 21.375C16.25 22.2701 16.6056 23.1286 17.2385 23.7615C17.8714 24.3944 18.7299 24.75 19.625 24.75C20.5201 24.75 21.3786 24.3944 22.0115 23.7615C22.6444 23.1286 23 22.2701 23 21.375C23 20.4799 22.6444 19.6214 22.0115 18.9885C21.3786 18.3556 20.5201 18 19.625 18ZM35.375 18C34.4799 18 33.6214 18.3556 32.9885 18.9885C32.3556 19.6214 32 20.4799 32 21.375C32 22.2701 32.3556 23.1286 32.9885 23.7615C33.6214 24.3944 34.4799 24.75 35.375 24.75C36.2701 24.75 37.1285 24.3944 37.7615 23.7615C38.3944 23.1286 38.75 22.2701 38.75 21.375C38.75 20.4799 38.3944 19.6214 37.7615 18.9885C37.1285 18.3556 36.2701 18 35.375 18Z" fill="url(#paint0_linear_247_14090)"/>
<defs>
<linearGradient id="paint0_linear_247_14090" x1="5.49002" y1="-24.7925" x2="56.1807" y2="-23.7541" gradientUnits="userSpaceOnUse">
<stop stop-color="#65B675"/>
<stop offset="1" stop-color="#138FC2"/>
</linearGradient>
</defs>
</svg>
