<svg width="16" height="17" viewBox="0 0 16 17" fill="none" xmlns="http://www.w3.org/2000/svg">
<path fill-rule="evenodd" clip-rule="evenodd" d="M7.1999 2.09961C6.89689 2.09961 6.61988 2.27081 6.48436 2.54184L5.90548 3.69961H3.1999C2.75807 3.69961 2.3999 4.05778 2.3999 4.49961C2.3999 4.94144 2.75807 5.29961 3.1999 5.29961L3.1999 13.2996C3.1999 14.1833 3.91625 14.8996 4.7999 14.8996H11.1999C12.0836 14.8996 12.7999 14.1833 12.7999 13.2996V5.29961C13.2417 5.29961 13.5999 4.94144 13.5999 4.49961C13.5999 4.05778 13.2417 3.69961 12.7999 3.69961H10.0943L9.51545 2.54184C9.37993 2.27081 9.10292 2.09961 8.7999 2.09961H7.1999ZM5.5999 6.89961C5.5999 6.45778 5.95807 6.09961 6.3999 6.09961C6.84173 6.09961 7.1999 6.45778 7.1999 6.89961V11.6996C7.1999 12.1414 6.84173 12.4996 6.3999 12.4996C5.95807 12.4996 5.5999 12.1414 5.5999 11.6996V6.89961ZM9.5999 6.09961C9.15807 6.09961 8.7999 6.45778 8.7999 6.89961V11.6996C8.7999 12.1414 9.15807 12.4996 9.5999 12.4996C10.0417 12.4996 10.3999 12.1414 10.3999 11.6996V6.89961C10.3999 6.45778 10.0417 6.09961 9.5999 6.09961Z" fill="#CB3A31"/>
</svg>
