<svg width="16" height="17" viewBox="0 0 16 17" fill="none" xmlns="http://www.w3.org/2000/svg">
<path d="M10.4 5.2999C10.4 6.62539 9.32553 7.6999 8.00005 7.6999C6.67457 7.6999 5.60005 6.62539 5.60005 5.2999C5.60005 3.97442 6.67457 2.8999 8.00005 2.8999C9.32553 2.8999 10.4 3.97442 10.4 5.2999Z" fill="#727272"/>
<path d="M14.4001 6.8999C14.4001 7.78356 13.6837 8.4999 12.8 8.4999C11.9164 8.4999 11.2 7.78356 11.2 6.8999C11.2 6.01625 11.9164 5.2999 12.8 5.2999C13.6837 5.2999 14.4001 6.01625 14.4001 6.8999Z" fill="#727272"/>
<path d="M11.2 12.4999C11.2 10.7326 9.76736 9.2999 8.00005 9.2999C6.23274 9.2999 4.80005 10.7326 4.80005 12.4999V14.8999H11.2V12.4999Z" fill="#727272"/>
<path d="M4.80005 6.8999C4.80005 7.78356 4.0837 8.4999 3.20005 8.4999C2.31639 8.4999 1.60005 7.78356 1.60005 6.8999C1.60005 6.01625 2.31639 5.2999 3.20005 5.2999C4.0837 5.2999 4.80005 6.01625 4.80005 6.8999Z" fill="#727272"/>
<path d="M12.8 14.8999V12.4999C12.8 11.6566 12.5826 10.8641 12.2006 10.1754C12.3922 10.1261 12.5931 10.0999 12.8 10.0999C14.1255 10.0999 15.2001 11.1744 15.2001 12.4999V14.8999H12.8Z" fill="#727272"/>
<path d="M3.79946 10.1754C3.41753 10.8641 3.20005 11.6566 3.20005 12.4999V14.8999H0.800049V12.4999C0.800049 11.1744 1.87457 10.0999 3.20005 10.0999C3.40702 10.0999 3.60786 10.1261 3.79946 10.1754Z" fill="#727272"/>
</svg>
