<svg width="16" height="17" viewBox="0 0 16 17" fill="none" xmlns="http://www.w3.org/2000/svg">
<path fill-rule="evenodd" clip-rule="evenodd" d="M7.99836 2.17383C11.4505 2.17096 14.3286 5.05477 14.3286 8.50025C14.3286 11.9486 11.4505 14.8238 7.99836 14.8219C7.09116 14.8224 6.19441 14.6282 5.36864 14.2526L2.23552 14.819C2.15235 14.8343 2.06663 14.8271 1.98711 14.7984C1.9076 14.7697 1.83714 14.7203 1.78294 14.6554C1.72873 14.5905 1.69272 14.5124 1.67859 14.4291C1.66446 14.3457 1.67271 14.2601 1.70251 14.1809L2.60041 11.7948C1.99549 10.8019 1.67497 9.66194 1.67385 8.4993C1.67481 5.05382 4.55002 2.17574 7.99836 2.17383ZM11.1745 11.1873C10.4705 11.7566 9.38056 12.3316 8.33842 11.663C6.97246 10.7851 5.76315 9.63219 4.88625 8.26527C4.37139 7.46479 4.85569 6.18289 5.57974 5.40152C5.86822 5.08916 6.34392 5.13883 6.65819 5.4254L7.3192 6.0291C7.5198 6.2125 7.52744 6.53154 7.4023 6.77417C7.20457 7.15435 7.08804 7.66539 7.33257 8.04652C7.64015 8.52413 8.01842 8.99506 8.92206 9.26921C9.19525 9.35326 9.54582 9.31697 9.84385 9.19661C10.0932 9.09535 10.4093 9.09631 10.5937 9.29309L11.2089 9.94741C11.548 10.3085 11.5594 10.8759 11.1745 11.1873Z" fill="#C1C5C8"/>
</svg>
